<svg xmlns="http://www.w3.org/2000/svg" fill="#fffa" viewBox="0 0 32 32"><title>15-DSLR Camera-Exchange</title><g id="_15-DSLR_Camera-Exchange" data-name="15-DSLR Camera-Exchange"><path d="M29,6H24.78L24,2.76A1,1,0,0,0,23,2H9a1,1,0,0,0-1,.76L7.22,6H3A3,3,0,0,0,0,9V27a3,3,0,0,0,3,3H29a3,3,0,0,0,3-3V9A3,3,0,0,0,29,6Zm1,21a1,1,0,0,1-1,1H3a1,1,0,0,1-1-1V9A1,1,0,0,1,3,8H8a1,1,0,0,0,1-.76L9.78,4H22.22L23,7.24A1,1,0,0,0,24,8h5a1,1,0,0,1,1,1Z"/><rect x="12" y="6" width="8" height="2"/><path d="M20.71,10.29l-1.41,1.41L20.59,13H10a2,2,0,0,0-2,2v3h2V15H20.59l-1.29,1.29,1.41,1.41,3-3a1,1,0,0,0,0-1.41Z"/><path d="M22,22H11.41l1.29-1.29-1.41-1.41-3,3a1,1,0,0,0,0,1.41l3,3,1.41-1.41L11.41,24H22a2,2,0,0,0,2-2V19H22Z"/></g></svg>